Coordinates
version=1
nRows=24
nColumns=24
inDegrees=yes

Units are S.I. units (second, meters, Newtons, ...)
Angles are in degrees.

endheader
time	pelvis_tilt	pelvis_list	pelvis_rotation	pelvis_tx	pelvis_ty	pelvis_tz	hip_flexion_r	hip_adduction_r	hip_rotation_r	knee_angle_r	ankle_angle_r	subtalar_angle_r	mtp_angle_r	hip_flexion_l	hip_adduction_l	hip_rotation_l	knee_angle_l	ankle_angle_l	subtalar_angle_l	mtp_angle_l	lumbar_extension	lumbar_bending	lumbar_rotation
      1.03633333	     -5.15607246	      0.35257596	      0.74197374	      0.50402455	      0.98892673	      0.31809647	     19.19449511	      3.31377884	      2.04169048	    -28.19814062	     16.01573872	    -10.37370644	     -0.58205117	     16.25338999	     -0.95198782	     -0.71847316	    -70.98714109	     -0.55079223	     -6.04271084	      3.92052028	     -5.99989727	      7.86802284	     -4.93143299
      1.04050000	     -5.06182497	      0.46955474	      0.61973815	      0.50856425	      0.99015324	      0.31851722	     18.56787125	      3.22782386	      2.12439537	    -27.69918051	     16.06857937	    -10.27423376	     -0.56517366	     16.77592932	     -0.91059658	     -0.93746201	    -70.86208856	      0.14446982	     -5.82309578	      3.80768828	     -6.13272043	      7.65891606	     -4.56007612
      1.04466667	     -4.98638097	      0.59226265	      0.48573150	      0.51305813	      0.99130797	      0.31890489	     17.97407802	      3.13399160	      2.22371396	    -27.21591034	     16.06428758	    -10.19642279	     -0.53026287	     17.31334762	     -0.85185616	     -1.15240851	    -70.69878931	      0.81838793	     -5.73190623	      3.54368964	     -6.27454024	      7.45532581	     -4.14440116
      1.04883333	     -4.93321056	      0.75903503	      0.36392629	      0.51752142	      0.99237642	      0.31926845	     17.43230727	      2.98354334	      2.29888266	    -26.79391991	     16.10632844	    -10.07321216	     -0.51730446	     17.86881728	     -0.74326084	     -1.36321749	    -70.48878494	      1.49395964	     -5.61241382	      3.47693054	     -6.37625011	      7.21664538	     -4.01415518
      1.05300000	     -4.84083378	      0.87402553	      0.23889490	      0.52204994	      0.99350562	      0.31963406	     16.81305955	      2.88663844	      2.37087561	    -26.29554547	     16.15665837	     -9.95800146	     -0.49756936	     18.36617595	     -0.70439765	     -1.57346742	    -70.23075094	      2.14101600	     -5.41637731	      3.36430476	     -6.50047363	      7.02359632	     -3.67709724
      1.05716667	     -4.77981453	      1.02590448	      0.09210973	      0.52653548	      0.99455059	      0.32000283	     16.24769329	      2.75865383	      2.49543923	    -25.83060927	     16.14002239	     -9.94061807	     -0.41030663	     18.88509098	     -0.61840399	     -1.79618097	    -69.91873502	      2.73078075	     -5.36677842	      2.76682361	     -6.61953975	      6.76678805	     -3.23649595
      1.06133333	     -4.69680321	      1.13390334	     -0.02343754	      0.53103796	      0.99556642	      0.32031514	     15.65445769	      2.65650477	      2.54132152	    -25.35904820	     16.19291800	     -9.76507180	     -0.39123778	     19.38067653	     -0.57976530	     -1.98088838	    -69.58936431	      3.35947424	     -5.20207235	      2.68218085	     -6.73295760	      6.61628232	     -3.09052219
      1.06550000	     -4.60138320	      1.26013431	     -0.15648239	      0.53554300	      0.99658270	      0.32063405	     15.04900795	      2.53941220	      2.62238324	    -24.88576508	     16.21299816	     -9.66309216	     -0.37196501	     19.84516848	     -0.52302732	     -2.17968886	    -69.20030472	      3.92735865	     -5.10607282	      2.58485860	     -6.87183266	      6.41936156	     -2.81267669
      1.06966667	     -4.52069926	      1.39002965	     -0.29091102	      0.54004085	      0.99753847	      0.32094003	     14.46492103	      2.41642708	      2.70871473	    -24.42060037	     16.23448604	     -9.55861955	     -0.35209612	     20.31604267	     -0.45944664	     -2.37027021	    -68.76975981	      4.45433200	     -5.03396217	      2.48472299	     -6.99624369	      6.21717137	     -2.52770246
      1.07383333	     -4.45864130	      1.53118421	     -0.43269663	      0.54454100	      0.99844057	      0.32121084	     13.91307282	      2.27434967	      2.78007120	    -23.97482495	     16.21351322	     -9.44179806	     -0.34111150	     20.79296211	     -0.37778610	     -2.56199939	    -68.29079398	      4.95927714	     -5.05129570	      2.43218710	     -7.07855811	      6.03196207	     -2.35279249
      1.07800000	     -4.32297600	      1.63779604	     -0.56412061	      0.54906076	      0.99940087	      0.32149834	     13.25614535	      2.17060140	      2.86948784	    -23.48099838	     16.27570642	     -9.33981132	     -0.31797145	     21.18249052	     -0.33904643	     -2.73003653	    -67.77844203	      5.40233417	     -4.96684378	      2.31971353	     -7.27615556	      5.83980743	     -1.97326929
      1.08216667	     -4.23328128	      1.77389905	     -0.71059035	      0.55355576	      1.00025725	      0.32175085	     12.67369722	      2.03016353	      2.95972307	    -23.03007888	     16.28976931	     -9.22567393	     -0.29763245	     21.60858739	     -0.25789288	     -2.89703036	    -67.21957991	      5.82812681	     -4.96867760	      2.21961703	     -7.41441561	      5.64072419	     -1.69760321
      1.08633333	     -4.15477838	      1.89261969	     -0.85394960	      0.55806588	      1.00104808	      0.32198808	     12.10407861	      1.90394447	      3.03663508	    -22.58039221	     16.28290020	     -9.10321863	     -0.28314929	     22.03804484	     -0.19582310	     -3.05459572	    -66.63111432	      6.23375973	     -5.00588706	      2.14906280	     -7.52318237	      5.47536613	     -1.47680342
      1.09050000	     -4.04875488	      2.00675853	     -0.98953803	      0.56259354	      1.00184515	      0.32221208	     11.49490854	      1.77908149	      3.11002869	    -22.11364564	     16.34537776	     -8.99627581	     -0.26121309	     22.42601847	     -0.13566284	     -3.19496117	    -65.99928992	      6.55911036	     -5.02843657	      2.04194191	     -7.66607362	      5.28207474	     -1.13997935
      1.09466667	     -3.98734850	      2.12063739	     -1.13616088	      0.56710750	      1.00252352	      0.32242260	     10.94968853	      1.65136360	      3.17890808	    -21.67233662	     16.32854538	     -8.86565417	     -0.24924331	     22.85292713	     -0.07207949	     -3.32787431	    -65.33999306	      6.90004497	     -5.10518218	      1.98385445	     -7.74786300	      5.11801540	     -0.95398997
      1.09883333	     -3.86566391	      2.23255041	     -1.27392190	      0.57163286	      1.00325191	      0.32261358	     10.32880983	      1.52172287	      3.25469750	    -21.21510512	     16.40832646	     -8.75266730	     -0.22843500	     23.20037170	     -0.00035683	     -3.43000525	    -64.63275087	      7.15420507	     -5.16747949	      1.88276255	     -7.91988078	      4.94111080	     -0.60065461
      1.10300000	     -3.77491064	      2.35508886	     -1.42315868	      0.57614927	      1.00389971	      0.32277427	      9.75603367	      1.37513951	      3.32448152	    -20.78016157	     16.40372995	     -8.61394178	     -0.21521615	     23.56717941	      0.08957438	     -3.52574745	    -63.88733155	      7.41895776	     -5.26704034	      1.81607722	     -8.04543000	      4.78137300	     -0.38155818
      1.10716667	     -3.66905733	      2.45767143	     -1.55941847	      0.58068188	      1.00450973	      0.32293198	      9.15767588	      1.24758848	      3.37887572	    -20.33249873	     16.48729317	     -8.48454646	     -0.19607610	     23.91083556	      0.15797106	     -3.60227339	    -63.11690288	      7.61531367	     -5.37988686	      1.72130289	     -8.19099198	      4.60464404	     -0.05672619
      1.11133333	     -3.57998056	      2.55108690	     -1.69650775	      0.58519784	      1.00504731	      0.32306714	      8.58231058	      1.12691492	      3.43832080	    -19.89102954	     16.52362735	     -8.35446014	     -0.17849896	     24.26301706	      0.22444732	     -3.65571084	    -62.31783839	      7.80717158	     -5.50332667	      1.62867556	     -8.31704574	      4.45775139	      0.21603652
      1.11550000	     -3.48725923	      2.65168167	     -1.83370515	      0.58972443	      1.00554599	      0.32318137	      8.00707482	      0.99366038	      3.48704938	    -19.45856266	     16.57103521	     -8.22395503	     -0.16276509	     24.59624063	      0.30396051	     -3.69482327	    -61.47885934	      7.96610997	     -5.63605990	      1.54559792	     -8.44507568	      4.30486356	      0.47735980
      1.11966667	     -3.40202265	      2.75793202	     -1.96799771	      0.59425447	      1.00599180	      0.32326985	      7.44445413	      0.84930383	      3.52701965	    -19.03532608	     16.62921912	     -8.07918314	     -0.14765885	     24.92313241	      0.39679242	     -3.71430354	    -60.60074326	      8.09088087	     -5.78710081	      1.46715033	     -8.56517835	      4.14739450	      0.73666223
      1.12383333	     -3.30949046	      2.84095822	     -2.09552209	      0.59877999	      1.00641507	      0.32333700	      6.86625694	      0.72704661	      3.56580848	    -18.59443004	     16.63592432	     -7.93778422	     -0.13784066	     25.23042112	      0.47253561	     -3.70303824	    -59.69337657	      8.20453479	     -5.92307755	      1.40945092	     -8.69308800	      4.02850812	      0.96602066
      1.12800000	     -3.21950720	      2.91757414	     -2.21726991	      0.60330257	      1.00674439	      0.32339983	      6.29665617	      0.61071105	      3.59759038	    -18.17229024	     16.73513697	     -7.80908475	     -0.12339729	     25.53356990	      0.54140241	     -3.67872843	    -58.76762263	      8.27766711	     -6.08208639	      1.33383337	     -8.82614947	      3.89397191	      1.25819276
      1.13216667	     -3.12704378	      2.99223220	     -2.33288312	      0.60783536	      1.00706998	      0.32343125	      5.71941783	      0.49143885	      3.62079452	    -17.73579253	     16.74462566	     -7.67585064	     -0.11539238	     25.81437156	      0.61790573	     -3.62742036	    -57.79547485	      8.33746521	     -6.21556170	      1.28185868	     -8.95202139	      3.78051029	      1.48060942
